<?xml version="1.0" standalone="no"?>
<svg xmlns:xlink="http://www.w3.org/1999/xlink" id="wave" style="transform:rotate(180deg); transition: 0.3s" viewBox="0 0 1440 130" version="1.1" xmlns="http://www.w3.org/2000/svg"><defs><linearGradient id="sw-gradient-0" x1="0" x2="0" y1="1" y2="0"><stop stop-color="rgba(255, 255, 255, 1)" offset="0%"/><stop stop-color="rgba(255, 255, 255, 1)" offset="100%"/></linearGradient></defs><path style="transform:translate(0, 0px); opacity:1" fill="url(#sw-gradient-0)" d="M0,65L48,54.2C96,43,192,22,288,10.8C384,0,480,0,576,8.7C672,17,768,35,864,52C960,69,1056,87,1152,84.5C1248,82,1344,61,1440,49.8C1536,39,1632,39,1728,39C1824,39,1920,39,2016,41.2C2112,43,2208,48,2304,49.8C2400,52,2496,52,2592,54.2C2688,56,2784,61,2880,69.3C2976,78,3072,91,3168,99.7C3264,108,3360,113,3456,104C3552,95,3648,74,3744,71.5C3840,69,3936,87,4032,88.8C4128,91,4224,78,4320,71.5C4416,65,4512,65,4608,58.5C4704,52,4800,39,4896,39C4992,39,5088,52,5184,56.3C5280,61,5376,56,5472,45.5C5568,35,5664,17,5760,19.5C5856,22,5952,43,6048,60.7C6144,78,6240,91,6336,88.8C6432,87,6528,69,6624,52C6720,35,6816,17,6864,8.7L6912,0L6912,130L6864,130C6816,130,6720,130,6624,130C6528,130,6432,130,6336,130C6240,130,6144,130,6048,130C5952,130,5856,130,5760,130C5664,130,5568,130,5472,130C5376,130,5280,130,5184,130C5088,130,4992,130,4896,130C4800,130,4704,130,4608,130C4512,130,4416,130,4320,130C4224,130,4128,130,4032,130C3936,130,3840,130,3744,130C3648,130,3552,130,3456,130C3360,130,3264,130,3168,130C3072,130,2976,130,2880,130C2784,130,2688,130,2592,130C2496,130,2400,130,2304,130C2208,130,2112,130,2016,130C1920,130,1824,130,1728,130C1632,130,1536,130,1440,130C1344,130,1248,130,1152,130C1056,130,960,130,864,130C768,130,672,130,576,130C480,130,384,130,288,130C192,130,96,130,48,130L0,130Z"/></svg>